<svg height="512pt" viewBox="0 0 512 512.001" width="512pt" xmlns="http://www.w3.org/2000/svg"><path d="m512 256c0 141.386719-114.613281 256-256 256-141.382812 0-256-114.613281-256-256s114.617188-256 256-256c141.386719 0 256 114.613281 256 256zm0 0" fill="#0065a3"/><path d="m504.574219 194.609375-120.65625-120.652344-120.917969 17.042969-22.574219 79 59.96875 139.144531-150.375-150.375-21.976562 21.976563 150.375 150.375-106.875 106.875 73.761719 73.765625c3.546874.144531 7.109374.238281 10.695312.238281 141.382812 0 256-114.613281 256-256 0-21.164062-2.585938-41.71875-7.425781-61.390625zm0 0" fill="#005285"/><path d="m347.519531 351.289062-7.039062 86.753907h-168.960938l-7.039062-86.753907 43.734375-21.332031h95.570312zm0 0" fill="#ff3636"/><path d="m303.785156 329.957031 43.734375 21.332031-7.039062 86.753907h-84.480469v-108.085938zm0 0" fill="#f40000"/><path d="m363.734375 159.289062-8.960937 106.667969-50.988282 21.332031h-95.570312l-50.988282-21.332031-8.960937-106.667969zm0 0" fill="#ff3636"/><path d="m256 159.289062h107.734375l-8.960937 106.667969-50.988282 21.332031h-47.785156zm0 0" fill="#f40000"/><path d="m384 73.957031v21.332031h-109.011719l-14.082031 55.894532-4.90625-1.28125-15.574219-3.839844 15.574219-62.71875 2.347656-9.386719zm0 0" fill="#005285"/><path d="m354.773438 265.957031-1.921876 21.332031-3.410156 42.667969-1.921875 21.332031h-43.734375c-12.160156 13.652344-29.226562 21.332032-47.785156 21.332032s-35.625-7.679688-47.785156-21.332032h-43.734375l-1.921875-21.332031-3.410156-42.667969-1.921876-21.332031h50.984376c12.160156-13.65625 29.230468-21.335937 47.789062-21.335937s35.625 7.683594 47.785156 21.335937zm0 0" fill="#fdbf00"/><path d="m303.785156 265.957031h50.988282l-1.921876 21.332031-3.410156 42.667969-1.921875 21.332031h-43.734375c-12.160156 13.652344-29.226562 21.332032-47.785156 21.332032v-128c18.558594 0 35.625 7.679687 47.785156 21.335937zm0 0" fill="#ff9f00"/><path d="m384 73.957031v21.332031h-109.011719l-14.082031 55.894532-4.90625-1.28125v-66.558594l2.347656-9.386719zm0 0" fill="#003e67"/><path d="m128 137.957031h256v42.664063h-256zm0 0" fill="#deecf1"/><path d="m256 137.957031h128v42.664063h-128zm0 0" fill="#c6e2e7"/></svg>