<svg height="512pt" viewBox="0 0 512 512" width="512pt" xmlns="http://www.w3.org/2000/svg"><path d="m512 256c0 141.386719-114.613281 256-256 256s-256-114.613281-256-256 114.613281-256 256-256 256 114.613281 256 256zm0 0" fill="#6e79e4"/><path d="m173.332031 429 82.996094 82.996094c141.234375-.179688 255.671875-114.722656 255.671875-255.996094 0-1.242188-.027344-2.476562-.046875-3.714844l-173.285156-173.285156zm0 0" fill="#2038da"/><path d="m173.332031 79h165.332031v350h-165.332031zm0 0" fill="#fff"/><path d="m255.546875 79h83.121094v350h-83.121094zm0 0" fill="#e9edf5"/><path d="m173.332031 201h165.332031v228h-165.332031zm0 0" fill="#ffe85f"/><path d="m255.546875 201h83.121094v228h-83.121094zm0 0" fill="#ffe000"/><path d="m221.195312 366.476562c0 5.328126-4.320312 9.648438-9.648437 9.648438s-9.644531-4.320312-9.644531-9.648438c0-5.328124 4.316406-9.648437 9.644531-9.648437s9.648437 4.320313 9.648437 9.648437zm0 0" fill="#fff"/><path d="m299.195312 229.144531c0 5.328125-4.320312 9.644531-9.648437 9.644531s-9.644531-4.316406-9.644531-9.644531 4.316406-9.648437 9.644531-9.648437 9.648437 4.320312 9.648437 9.648437zm0 0" fill="#e9edf5"/><path d="m293.980469 394.332031c0 5.328125-4.320313 9.648438-9.648438 9.648438s-9.644531-4.320313-9.644531-9.648438 4.316406-9.644531 9.644531-9.644531 9.648438 4.316406 9.648438 9.644531zm0 0" fill="#fff"/><path d="m261.332031 325c0 8.285156-6.714843 15-15 15-8.285156 0-15-6.714844-15-15s6.714844-15 15-15c8.285157 0 15 6.714844 15 15zm0 0" fill="#fff"/><path d="m261.332031 325c0-4.808594-2.269531-9.074219-5.785156-11.820312v23.640624c3.515625-2.746093 5.785156-7.011718 5.785156-11.820312zm0 0" fill="#e9edf5"/><path d="m316.214844 313.144531c0 7.730469-6.269532 14-14 14-7.734375 0-14-6.269531-14-14 0-7.734375 6.265625-14 14-14 7.730468 0 14 6.265625 14 14zm0 0" fill="#e9edf5"/><path d="m244.535156 258.480469c0 10.117187-8.199218 18.316406-18.316406 18.316406s-18.316406-8.199219-18.316406-18.316406c0-10.117188 8.199218-18.316407 18.316406-18.316407s18.316406 8.199219 18.316406 18.316407zm0 0" fill="#fff"/><path d="m417.019531 332.734375c0 47.46875-38.484375 85.953125-85.953125 85.953125s-85.953125-38.484375-85.953125-85.953125zm0 0" fill="#fdba12"/><path d="m417.019531 332.734375h-85.875v85.949219c47.433594-.039063 85.875-38.503906 85.875-85.949219zm0 0" fill="#ffa300"/><path d="m400.445312 377.914062-45.1875-45.179687h-48.382812l-45.1875 45.179687 12.691406 12.703126 48.136719-48.125v74.269531h17.957031v-73.414063l47.28125 47.269532zm0 0" fill="#ffd93b"/><path d="m355.257812 332.734375h-24.113281v84.027344h9.328125v-73.414063l47.28125 47.269532 12.695313-12.703126zm0 0" fill="#fdba12"/><path d="m331.066406 427.667969c-52.34375 0-94.933594-42.589844-94.933594-94.933594h17.960938c0 42.441406 34.53125 76.972656 76.972656 76.972656 42.445313 0 76.972656-34.53125 76.972656-76.972656h17.960938c0 52.34375-42.585938 94.933594-94.933594 94.933594zm0 0" fill="#ff9500"/><path d="m426 332.734375h-17.960938c0 42.414063-34.488281 76.925781-76.894531 76.96875v17.960937c52.308594-.039062 94.855469-42.609374 94.855469-94.929687zm0 0" fill="#fe6a16"/></svg>