<svg height="512pt" viewBox="0 0 512 512" width="512pt" xmlns="http://www.w3.org/2000/svg"><path d="m512 256c0 141.386719-114.613281 256-256 256s-256-114.613281-256-256 114.613281-256 256-256 256 114.613281 256 256zm0 0" fill="#00f8fe"/><path d="m511.910156 262.804688-133.308594-133.304688h-102.601562l-43.957031-44.527344-103.730469-19.28125-5.484375 29.496094 34.375 34.3125h-23.804687l33.164062 325.34375 54.820312 54.816406c11.320313 1.53125 22.875 2.339844 34.617188 2.339844 139.109375 0 252.300781-110.957031 255.910156-249.195312zm0 0" fill="#00d6d6"/><path d="m133.398438 129.5 33.164062 325.34375h178.875l33.164062-325.34375zm0 0" fill="#fff"/><path d="m378.601562 129.5-33.160156 325.339844h-89.441406v-325.339844zm0 0" fill="#fff5cb"/><path d="m232.042969 225.859375h-30v-115.953125l-79.214844-14.71875 5.484375-29.496094 103.730469 19.28125zm0 0" fill="#7985eb"/><path d="m163.046875 179.792969 25.144531 246.664062h135.617188l25.144531-246.664062zm0 0" fill="#ff738e"/><path d="m348.949219 179.789062-25.140625 246.671876h-67.808594v-246.671876zm0 0" fill="#ff0335"/><path d="m258.988281 213.417969 54.363281 13.003906-13 54.363281-54.363281-13.003906zm0 0" fill="#fff"/><path d="m313.351562 226.410156-13 54.359375-44.351562-10.609375v-44.25l2.988281-12.5zm0 0" fill="#fff5cb"/><path d="m207.53125 300.703125 60-14.769531 14.769531 60-60 14.769531zm0 0" fill="#fff"/><path d="m282.289062 345.960938-26.289062 6.46875v-63.628907l11.53125-2.839843zm0 0" fill="#fff5cb"/></svg>