<svg height="512pt" viewBox="0 0 512 512" width="512pt" xmlns="http://www.w3.org/2000/svg"><path d="m512 256c0 141.386719-114.613281 256-256 256s-256-114.613281-256-256 114.613281-256 256-256 256 114.613281 256 256zm0 0" fill="#4a7aff"/><path d="m264.828125 511.832031c128.996094-4.375 233.773437-104.167969 245.972656-231.03125l-133.800781-133.800781-4.914062 6.085938-31.085938-31.085938-3.8125 4.1875-67.6875-67.6875-71.5 27 55.921875 55.921875-118.921875 49.578125 112.414062 112.414062-67.195312 123.808594zm0 0" fill="#1f61e5"/><path d="m269.5 272h-27v-186.5h-44.5v-27h71.5zm0 0" fill="#e6e6e6"/><path d="m255.808594 58.5h13.691406v213.5h-13.691406zm0 0" fill="#d7d7d7"/><path d="m331.78125 427.222656h-151.5625l-30-258.222656h211.5625zm0 0" fill="#fff"/><path d="m361.78125 169h-105.972656v258.222656h75.972656zm0 0" fill="#e9edf5"/><path d="m303.230469 427.222656h-94.460938l-18.699219-258.222656h131.859376zm0 0" fill="#ff583e"/><path d="m321.929688 169h-66.121094v258.222656h47.421875zm0 0" fill="#ea1d13"/><path d="m274.972656 427.222656h-37.945312l-7.511719-258.222656h52.96875zm0 0" fill="#fff"/><path d="m282.484375 169h-26.675781v258.222656h19.164062zm0 0" fill="#e9edf5"/><path d="m171 122h170v39h-170zm0 0" fill="#fff"/><path d="m255.808594 122h85.191406v39h-85.191406zm0 0" fill="#e9edf5"/><path d="m135 147h242v44h-242zm0 0" fill="#ff9b87"/><path d="m255.808594 147h121.191406v44h-121.191406zm0 0" fill="#ff8870"/></svg>